<svg width="32" height="32" viewBox="0 0 32 32" fill="none" xmlns="http://www.w3.org/2000/svg">
<path fill-rule="evenodd" clip-rule="evenodd" d="M3.91973 0H27.8667C30.0617 0 31.8567 1.8 31.8567 4V28C31.8567 30.2 30.0617 32 27.8667 32H3.91873C1.72373 32 -0.0712656 30.2 -0.0712656 28V22.626L-0.0152656 22.659C1.77131 23.7049 3.56132 24.7449 5.35473 25.779C5.83173 26.049 6.28873 26.043 6.74873 25.777L12.9727 22.187L13.0887 22.12L13.0917 22.118L13.1097 22.108L13.1747 22.07C15.3401 20.8215 17.5055 19.5728 19.6707 18.324C19.9467 18.164 19.9607 17.673 19.6507 17.495L19.4337 17.372L19.4327 17.371C19.1167 17.191 18.7087 16.958 18.5347 16.855C18.3818 16.7715 18.2099 16.7287 18.0357 16.7309C17.8614 16.733 17.6906 16.7798 17.5397 16.867C17.3847 16.957 7.06073 22.906 6.71573 23.102C6.51241 23.2186 6.28211 23.2799 6.04773 23.2799C5.81336 23.2799 5.58306 23.2186 5.37973 23.102L-0.0722656 19.927V17.234L-0.0152656 17.267C1.34673 18.062 4.56573 19.941 5.35473 20.387C5.83173 20.657 6.28873 20.651 6.74873 20.385L13.1017 16.721L13.1257 16.707L13.1297 16.705C16.3177 14.865 19.5297 13.014 19.6697 12.932C19.9467 12.772 19.9607 12.281 19.6507 12.104L19.4337 11.98C19.1187 11.8 18.7087 11.566 18.5337 11.463C18.3809 11.3797 18.2092 11.337 18.0352 11.3391C17.8611 11.3412 17.6905 11.388 17.5397 11.475C17.3847 11.565 7.06073 17.514 6.71573 17.71C6.51241 17.8266 6.28211 17.8879 6.04773 17.8879C5.81336 17.8879 5.58306 17.8266 5.37973 17.71L-0.0722656 14.535V11.842L-0.0162656 11.875C1.34473 12.67 4.56573 14.549 5.35373 14.995C5.83173 15.265 6.28873 15.259 6.74873 14.993L13.1087 11.325L13.1167 11.32H13.1187L13.1987 11.273L19.6697 7.54C19.9457 7.38 19.9597 6.89 19.6497 6.712L19.4327 6.588C19.1167 6.408 18.7077 6.174 18.5327 6.072C18.3799 5.98868 18.2082 5.94603 18.0342 5.94813C17.8601 5.95023 17.6895 5.99702 17.5387 6.084C17.3837 6.173 7.05973 12.122 6.71473 12.319C6.51141 12.4356 6.28111 12.4969 6.04673 12.4969C5.81236 12.4969 5.58206 12.4356 5.37873 12.319L-0.0722656 9.143V4C-0.0722656 1.8 1.72373 0 3.91873 0H3.91973Z" fill="#E44232"/>
</svg>
