<svg width="17" height="16" viewBox="0 0 17 16" fill="none" xmlns="http://www.w3.org/2000/svg">
<g clip-path="url(#clip0_10006_135)">
<mask id="mask0_10006_135" style="mask-type:alpha" maskUnits="userSpaceOnUse" x="0" y="0" width="17" height="16">
<path fill-rule="evenodd" clip-rule="evenodd" d="M0.548828 0H16.5479V15.9022H0.548828V0Z" fill="white"/>
</mask>
<g mask="url(#mask0_10006_135)">
<path fill-rule="evenodd" clip-rule="evenodd" d="M16.5469 8.00054C16.5468 6.4717 16.1086 4.97491 15.2843 3.68736C14.4599 2.39982 13.2839 1.37544 11.8955 0.735516C10.507 0.0955885 8.96425 -0.13309 7.44986 0.0765533C5.93547 0.286197 4.51287 0.925383 3.35047 1.91844C2.18807 2.91149 1.33456 4.21682 0.890992 5.67989C0.447423 7.14296 0.432369 8.70249 0.847614 10.1739C1.26286 11.6452 2.09101 12.9668 3.23402 13.9821C4.37703 14.9974 5.78704 15.6639 7.2971 15.9028V10.3134H5.26599V8.00054H7.2971V6.23787C7.2971 4.23342 8.49088 3.12587 10.3193 3.12587C11.194 3.12587 12.1095 3.28142 12.1095 3.28142V5.25031H11.1007C10.1069 5.25031 9.79665 5.8672 9.79665 6.50009V8.00054H12.0153L11.6607 10.3134H9.79665V15.9036C13.6224 15.3036 16.5469 11.9934 16.5469 8.00054Z" fill="#1877F2"/>
</g>
<path fill-rule="evenodd" clip-rule="evenodd" d="M11.6614 10.3126L12.0169 7.99967H9.79736V6.49922C9.79736 5.86633 10.1076 5.24944 11.1014 5.24944H12.1102V3.28056C12.1102 3.28056 11.1947 3.125 10.3191 3.125C8.49158 3.125 7.29691 4.23256 7.29691 6.237V7.99967H5.26758V10.3126H7.29869V15.9028C8.1268 16.0328 8.97013 16.0328 9.79824 15.9028V10.3108H11.6622L11.6614 10.3126Z" fill="white"/>
</g>
<defs>
<clipPath id="clip0_10006_135">
<rect width="16" height="16" fill="white" transform="translate(0.546875)"/>
</clipPath>
</defs>
</svg>
