<svg width="17" height="16" viewBox="0 0 17 16" fill="none" xmlns="http://www.w3.org/2000/svg">
<g clip-path="url(#clip0_10006_125)">
<path fill-rule="evenodd" clip-rule="evenodd" d="M16.4612 8.18222C16.4612 7.61422 16.4106 7.06933 16.3155 6.54578H8.78125V9.64H13.087C12.9979 10.1294 12.8105 10.5957 12.5361 11.0106C12.2617 11.4256 11.906 11.7806 11.4906 12.0542V14.0622H14.0755C15.5884 12.6693 16.4612 10.6178 16.4612 8.18222Z" fill="#4285F4"/>
<path fill-rule="evenodd" clip-rule="evenodd" d="M8.78215 15.9995C10.9421 15.9995 12.7528 15.2831 14.0764 14.0618L11.4915 12.0538C10.775 12.5338 9.85859 12.8182 8.78215 12.8182C6.69859 12.8182 4.93503 11.4102 4.3057 9.51953H1.63281V11.5924C2.29863 12.9177 3.31987 14.0317 4.5824 14.81C5.84493 15.5883 7.29901 16.0001 8.78215 15.9995Z" fill="#34A853"/>
<path fill-rule="evenodd" clip-rule="evenodd" d="M4.30481 9.52C4.14011 9.0301 4.05547 8.51685 4.05414 8C4.05414 7.47289 4.14481 6.96 4.30481 6.48V4.40711H1.63192C1.07197 5.52198 0.780646 6.75241 0.781251 8C0.781251 9.29067 1.09058 10.5129 1.63192 11.5929L4.30481 9.52Z" fill="#FBBC05"/>
<path fill-rule="evenodd" clip-rule="evenodd" d="M8.78215 3.18222C9.95637 3.18222 11.0115 3.58578 11.8399 4.37778L14.135 2.08445C12.7493 0.792001 10.9386 6.2852e-07 8.78215 6.2852e-07C7.29901 -0.000587273 5.84493 0.411267 4.5824 1.18954C3.31987 1.96781 2.29863 3.08183 1.63281 4.40711L4.3057 6.48C4.93503 4.58933 6.69859 3.18222 8.78215 3.18222Z" fill="#EA4335"/>
</g>
<defs>
<clipPath id="clip0_10006_125">
<rect width="16" height="16" fill="white" transform="translate(0.78125)"/>
</clipPath>
</defs>
</svg>
